<svg width="40" height="40" viewBox="0 0 40 40" fill="none" xmlns="http://www.w3.org/2000/svg">
<path d="M20.0001 22.0492L10.1357 31.9135C9.86649 32.1827 9.52809 32.3204 9.1205 32.3267C8.71294 32.3329 8.36832 32.1952 8.08664 31.9135C7.80492 31.6318 7.66406 31.2903 7.66406 30.8889C7.66406 30.4876 7.80492 30.1461 8.08664 29.8644L17.951 20.0001L8.08664 10.1357C7.8174 9.86648 7.67967 9.52809 7.67344 9.1205C7.66719 8.71294 7.80492 8.36832 8.08664 8.08664C8.36832 7.80492 8.70983 7.66406 9.11117 7.66406C9.5125 7.66406 9.85401 7.80492 10.1357 8.08664L20.0001 17.9509L29.8644 8.08664C30.1336 7.8174 30.472 7.67967 30.8796 7.67344C31.2872 7.66719 31.6318 7.80492 31.9135 8.08664C32.1952 8.36832 32.336 8.70983 32.336 9.11117C32.336 9.5125 32.1952 9.85401 31.9135 10.1357L22.0492 20.0001L31.9135 29.8644C32.1827 30.1336 32.3204 30.472 32.3267 30.8796C32.3329 31.2872 32.1952 31.6318 31.9135 31.9135C31.6318 32.1952 31.2903 32.336 30.8889 32.336C30.4876 32.336 30.1461 32.1952 29.8644 31.9135L20.0001 22.0492Z" fill="#F1F1F5"/>
</svg>
