<svg width="24" height="24" viewBox="0 0 24 24" fill="none" xmlns="http://www.w3.org/2000/svg">
<path d="M11.9904 19.7095C11.7763 19.7095 11.5612 19.671 11.3452 19.5941C11.1291 19.5171 10.9391 19.3966 10.775 19.2325L9.33848 17.9268C7.56539 16.3101 5.98238 14.722 4.58943 13.1624C3.19648 11.6027 2.5 9.93191 2.5 8.14988C2.5 6.73066 2.97852 5.54253 3.93558 4.58548C4.89263 3.62843 6.08076 3.1499 7.49998 3.1499C8.30638 3.1499 9.10285 3.3358 9.8894 3.7076C10.6759 4.0794 11.3795 4.68325 12 5.51915C12.6205 4.68325 13.324 4.0794 14.1105 3.7076C14.8971 3.3358 15.6936 3.1499 16.5 3.1499C17.9192 3.1499 19.1073 3.62843 20.0644 4.58548C21.0214 5.54253 21.5 6.73066 21.5 8.14988C21.5 9.95114 20.7916 11.6406 19.375 13.2181C17.9583 14.7957 16.3788 16.3704 14.6365 17.9422L13.2154 19.2325C13.0513 19.3966 12.8596 19.5171 12.6404 19.5941C12.4211 19.671 12.2045 19.7095 11.9904 19.7095Z" fill="#FF0000"/>
</svg>
