<svg width="28" height="28" viewBox="0 0 28 28" fill="none" xmlns="http://www.w3.org/2000/svg">
<path d="M8.09204 11.9877C7.65743 13.2915 7.65743 14.7102 8.09204 16.0141L4.90357 18.4897L8.09107 16.0365C8.93752 18.5068 11.2486 20.3598 13.9934 20.3598C15.4114 20.3597 16.624 19.9934 17.5618 19.3529L17.7073 19.4643L17.5618 19.352C18.6824 18.6201 19.4374 17.4768 19.6663 16.1732H13.9934V12.1244H23.8977C24.012 12.8106 24.0813 13.5424 24.0813 14.2514C24.0813 17.4308 22.9374 20.13 20.9475 21.9828L20.9329 21.9711C19.1956 23.565 16.8227 24.4993 13.9934 24.4994C10.0133 24.4994 6.39871 22.2578 4.6145 18.7123V18.7113C3.12843 15.7608 3.1289 12.2617 4.61548 9.28848L8.09204 11.9877ZM13.9934 3.5004C16.6009 3.47763 19.1174 4.43797 21.0159 6.22208L18.0188 9.24161C16.9438 8.21249 15.48 7.64073 13.9934 7.66348C11.2485 7.66348 8.93744 9.49345 8.09107 11.9867L4.6145 9.2875C6.39875 5.74209 10.0133 3.5004 13.9934 3.5004Z" fill="#6E6E82"/>
</svg>
