<svg width="28" height="26" viewBox="0 0 28 26" fill="none" xmlns="http://www.w3.org/2000/svg">
<path d="M14 21.7601L7.25723 25.8103C7.00615 25.9564 6.75452 26.0178 6.50234 25.9946C6.25013 25.9713 6.02181 25.8867 5.81738 25.7406C5.61298 25.5945 5.45523 25.4036 5.34414 25.1679C5.23301 24.9322 5.21523 24.6716 5.2908 24.3861L7.08061 16.7605L1.12782 11.628C0.905628 11.4355 0.763983 11.2125 0.702888 10.9591C0.641794 10.7057 0.657898 10.4595 0.751201 10.2205C0.844533 9.98142 0.97897 9.7861 1.15451 9.6345C1.33006 9.4829 1.57003 9.38387 1.87443 9.3374L9.73039 8.65352L12.7801 1.45279C12.8912 1.18501 13.0595 0.986924 13.285 0.858543C13.5106 0.730191 13.7489 0.666016 14 0.666016C14.251 0.666016 14.4894 0.730191 14.7149 0.858543C14.9404 0.986924 15.1087 1.18501 15.2198 1.45279L18.2695 8.65352L26.1255 9.3374C26.4299 9.38387 26.6699 9.4829 26.8454 9.6345C27.0209 9.7861 27.1554 9.98142 27.2487 10.2205C27.342 10.4595 27.3581 10.7057 27.297 10.9591C27.2359 11.2125 27.0943 11.4355 26.8721 11.628L20.9193 16.7605L22.7091 24.3861C22.7847 24.6716 22.7669 24.9322 22.6558 25.1679C22.5447 25.4036 22.3869 25.5945 22.1825 25.7406C21.9781 25.8867 21.7498 25.9713 21.4976 25.9946C21.2454 26.0178 20.9938 25.9564 20.7427 25.8103L14 21.7601Z" fill="#FFC83C"/>
</svg>
