<svg width="494" height="280" viewBox="0 0 494 280" fill="none" xmlns="http://www.w3.org/2000/svg">
<path d="M46.3664 37.0464C46.3664 29.5264 43.6784 25.7664 38.3024 25.7664C32.9264 25.7664 30.2384 29.5264 30.2384 37.0464C30.2384 44.5664 32.9264 48.3264 38.3024 48.3264C43.6784 48.3264 46.3664 44.5664 46.3664 37.0464ZM50.3024 50.2944C47.3584 53.4624 43.3584 55.0464 38.3024 55.0464C33.2464 55.0464 29.2464 53.4624 26.3024 50.2944C23.3584 47.0944 21.8864 42.6784 21.8864 37.0464C21.8864 31.4144 23.3584 27.0144 26.3024 23.8464C29.2464 20.6464 33.2464 19.0464 38.3024 19.0464C43.3584 19.0464 47.3584 20.6464 50.3024 23.8464C53.2464 27.0144 54.7184 31.4144 54.7184 37.0464C54.7184 42.6784 53.2464 47.0944 50.3024 50.2944ZM73.8269 36.3264C73.0589 35.1424 71.8749 34.5504 70.2749 34.5504C68.6749 34.5504 67.4749 35.1424 66.6749 36.3264C65.9069 37.5104 65.5229 39.4304 65.5229 42.0864C65.5229 44.7424 65.9069 46.6624 66.6749 47.8464C67.4749 49.0304 68.6749 49.6224 70.2749 49.6224C71.8749 49.6224 73.0589 49.0304 73.8269 47.8464C74.6269 46.6624 75.0269 44.7424 75.0269 42.0864C75.0269 39.4304 74.6269 37.5104 73.8269 36.3264ZM79.5389 51.6384C77.3309 53.9104 74.2429 55.0464 70.2749 55.0464C66.3069 55.0464 63.2189 53.9104 61.0109 51.6384C58.8029 49.3664 57.6989 46.1824 57.6989 42.0864C57.6989 37.9904 58.8029 34.8064 61.0109 32.5344C63.2189 30.2624 66.3069 29.1264 70.2749 29.1264C74.2429 29.1264 77.3309 30.2624 79.5389 32.5344C81.7469 34.8064 82.8509 37.9904 82.8509 42.0864C82.8509 46.1824 81.7469 49.3664 79.5389 51.6384ZM102.421 36.3264C101.653 35.1424 100.469 34.5504 98.8687 34.5504C97.2687 34.5504 96.0687 35.1424 95.2687 36.3264C94.5007 37.5104 94.1167 39.4304 94.1167 42.0864C94.1167 44.7424 94.5007 46.6624 95.2687 47.8464C96.0687 49.0304 97.2687 49.6224 98.8687 49.6224C100.469 49.6224 101.653 49.0304 102.421 47.8464C103.221 46.6624 103.621 44.7424 103.621 42.0864C103.621 39.4304 103.221 37.5104 102.421 36.3264ZM108.133 51.6384C105.925 53.9104 102.837 55.0464 98.8687 55.0464C94.9007 55.0464 91.8127 53.9104 89.6047 51.6384C87.3967 49.3664 86.2927 46.1824 86.2927 42.0864C86.2927 37.9904 87.3967 34.8064 89.6047 32.5344C91.8127 30.2624 94.9007 29.1264 98.8687 29.1264C102.837 29.1264 105.925 30.2624 108.133 32.5344C110.341 34.8064 111.445 37.9904 111.445 42.0864C111.445 46.1824 110.341 49.3664 108.133 51.6384ZM123.682 39.1104V45.0624C123.682 46.1184 124.162 47.0944 125.122 47.9904C126.114 48.8544 127.234 49.2864 128.482 49.2864C129.954 49.2864 131.122 48.6944 131.986 47.5104C132.85 46.2944 133.282 44.4864 133.282 42.0864C133.282 37.2864 131.682 34.8864 128.482 34.8864C127.234 34.8864 126.114 35.3344 125.122 36.2304C124.162 37.0944 123.682 38.0544 123.682 39.1104ZM118.834 65.1264C118.098 65.1264 117.458 64.8544 116.914 64.3104C116.37 63.7664 116.098 63.1264 116.098 62.3904V32.3424C116.098 31.6064 116.37 30.9664 116.914 30.4224C117.458 29.8784 118.098 29.6064 118.834 29.6064H120.754C121.522 29.6064 122.178 29.8784 122.722 30.4224C123.266 30.9344 123.554 31.5744 123.586 32.3424V32.7264C123.586 32.7584 123.602 32.7744 123.634 32.7744L123.73 32.6784C125.778 30.3104 128.242 29.1264 131.122 29.1264C134.098 29.1264 136.466 30.2464 138.226 32.4864C140.018 34.7264 140.914 37.9264 140.914 42.0864C140.914 46.1184 139.986 49.2864 138.13 51.5904C136.306 53.8944 133.97 55.0464 131.122 55.0464C128.466 55.0464 126.098 54.0704 124.018 52.1184C123.986 52.0864 123.954 52.0704 123.922 52.0704C123.89 52.0704 123.874 52.0864 123.874 52.1184V62.3904C123.874 63.1264 123.602 63.7664 123.058 64.3104C122.514 64.8544 121.874 65.1264 121.138 65.1264H118.834ZM154.744 44.9664C151.288 44.3264 148.808 43.3344 147.304 41.9904C145.832 40.6464 145.096 38.8704 145.096 36.6624C145.096 34.2944 145.976 32.4544 147.736 31.1424C149.528 29.7984 152.216 29.1264 155.8 29.1264C157.912 29.1264 160.072 29.3024 162.28 29.6544C163.048 29.7824 163.672 30.1504 164.152 30.7584C164.664 31.3664 164.92 32.0704 164.92 32.8704V33.1104C164.92 33.7824 164.648 34.3264 164.104 34.7424C163.592 35.1584 163 35.3024 162.328 35.1744C160.248 34.7584 158.328 34.5504 156.568 34.5504C155.256 34.5504 154.328 34.7104 153.784 35.0304C153.272 35.3504 153.016 35.8304 153.016 36.4704C153.016 37.6864 153.976 38.4864 155.896 38.8704C159.544 39.4784 162.088 40.4384 163.528 41.7504C165 43.0624 165.736 44.9664 165.736 47.4624C165.736 49.8624 164.84 51.7344 163.048 53.0784C161.256 54.3904 158.648 55.0464 155.224 55.0464C152.728 55.0464 150.36 54.8064 148.12 54.3264C147.352 54.1664 146.712 53.7664 146.2 53.1264C145.72 52.4544 145.48 51.7024 145.48 50.8704V50.4864C145.48 49.8144 145.752 49.3024 146.296 48.9504C146.84 48.5664 147.448 48.4544 148.12 48.6144C150.2 49.1584 152.248 49.4304 154.264 49.4304C156.632 49.4304 157.816 48.7424 157.816 47.3664C157.816 46.7264 157.592 46.2304 157.144 45.8784C156.728 45.5264 155.928 45.2224 154.744 44.9664ZM177.123 43.5264C176.355 43.5264 175.699 43.2704 175.155 42.7584C174.643 42.2144 174.355 41.5584 174.291 40.7904L173.331 22.2624C173.299 21.5264 173.539 20.8864 174.051 20.3424C174.563 19.7984 175.187 19.5264 175.923 19.5264H180.243C180.979 19.5264 181.603 19.7984 182.115 20.3424C182.659 20.8864 182.899 21.5264 182.835 22.2624L181.923 40.7904C181.891 41.5584 181.587 42.2144 181.011 42.7584C180.467 43.2704 179.811 43.5264 179.043 43.5264H177.123ZM179.523 47.3664C180.259 47.3664 180.899 47.6384 181.443 48.1824C181.987 48.7264 182.259 49.3664 182.259 50.1024V51.8304C182.259 52.5664 181.987 53.2064 181.443 53.7504C180.899 54.2944 180.259 54.5664 179.523 54.5664H176.643C175.907 54.5664 175.267 54.2944 174.723 53.7504C174.179 53.2064 173.907 52.5664 173.907 51.8304V50.1024C173.907 49.3664 174.179 48.7264 174.723 48.1824C175.267 47.6384 175.907 47.3664 176.643 47.3664H179.523Z" fill="#F1F1F5"/>
<g filter="url(#filter0_d_1088_17571)">
<path d="M352.66 221.144C352.66 198.744 352.66 176.077 352.66 153.144C352.66 130.21 352.66 107.544 352.66 85.1436C360.66 85.1436 368.66 85.1436 376.66 85.1436C384.793 85.1436 392.86 85.1436 400.86 85.1436C410.994 85.1436 419.86 87.0769 427.46 90.9436C435.06 94.6769 440.927 100.01 445.06 106.944C449.327 113.744 451.46 121.744 451.46 130.944C451.46 138.81 449.86 145.81 446.66 151.944C443.46 158.077 439.127 163.077 433.66 166.944C438.993 175.877 444.327 184.944 449.66 194.144C455.127 203.21 460.527 212.21 465.86 221.144C459.327 221.144 452.794 221.144 446.26 221.144C439.727 221.144 433.193 221.144 426.66 221.144C422.527 213.677 418.327 206.077 414.06 198.344C409.927 190.61 405.727 183.01 401.46 175.544C399.193 175.544 396.86 175.544 394.46 175.544C392.193 175.544 389.927 175.544 387.66 175.544C387.66 183.01 387.66 190.61 387.66 198.344C387.66 206.077 387.66 213.677 387.66 221.144C381.927 221.144 376.127 221.144 370.26 221.144C364.393 221.144 358.527 221.144 352.66 221.144ZM400.86 116.744C398.727 116.744 396.527 116.744 394.26 116.744C392.127 116.744 389.927 116.744 387.66 116.744C387.66 121.677 387.66 126.61 387.66 131.544C387.66 136.477 387.66 141.41 387.66 146.344C390.193 146.344 392.727 146.344 395.26 146.344C397.793 146.344 400.327 146.344 402.86 146.344C406.86 146.344 410.127 144.944 412.66 142.144C415.193 139.21 416.46 135.677 416.46 131.544C416.46 127.277 415.06 123.744 412.26 120.944C409.593 118.144 405.794 116.744 400.86 116.744Z" fill="#F1F1F5"/>
</g>
<g filter="url(#filter1_d_1088_17571)">
<path d="M320.548 250.375C310.815 250.375 301.815 248.641 293.548 245.175C285.282 241.575 278.148 236.575 272.148 230.175C266.148 223.775 261.482 216.241 258.148 207.575C254.815 198.775 253.148 189.241 253.148 178.975C253.148 168.708 254.815 159.241 258.148 150.575C261.482 141.908 266.148 134.441 272.148 128.175C278.148 121.775 285.282 116.841 293.548 113.375C301.815 109.775 310.815 107.975 320.548 107.975C330.282 107.975 339.215 109.775 347.348 113.375C355.615 116.841 362.748 121.775 368.748 128.175C374.882 134.441 379.615 141.908 382.948 150.575C386.282 159.241 387.948 168.708 387.948 178.975C387.948 189.241 386.282 198.775 382.948 207.575C379.615 216.241 374.882 223.775 368.748 230.175C362.748 236.575 355.615 241.575 347.348 245.175C339.215 248.641 330.282 250.375 320.548 250.375ZM320.548 217.975C327.082 217.975 332.682 216.375 337.348 213.175C342.015 209.841 345.615 205.241 348.148 199.375C350.815 193.508 352.148 186.708 352.148 178.975C352.148 171.241 350.815 164.508 348.148 158.775C345.615 153.041 342.015 148.575 337.348 145.375C332.682 142.041 327.082 140.375 320.548 140.375C314.148 140.375 308.548 141.975 303.748 145.175C299.082 148.375 295.415 152.908 292.748 158.775C290.215 164.508 288.948 171.241 288.948 178.975C288.948 186.708 290.215 193.508 292.748 199.375C295.415 205.241 299.082 209.841 303.748 213.175C308.548 216.375 314.148 217.975 320.548 217.975Z" fill="#F1F1F5"/>
</g>
<g filter="url(#filter2_d_1088_17571)">
<path d="M192.969 221.144C192.969 198.744 192.969 176.077 192.969 153.144C192.969 130.21 192.969 107.544 192.969 85.1436C200.969 85.1436 208.969 85.1436 216.969 85.1436C225.102 85.1436 233.169 85.1436 241.169 85.1436C251.302 85.1436 260.169 87.0769 267.769 90.9436C275.369 94.6769 281.235 100.01 285.369 106.944C289.635 113.744 291.769 121.744 291.769 130.944C291.769 138.81 290.169 145.81 286.969 151.944C283.769 158.077 279.435 163.077 273.969 166.944C279.302 175.877 284.635 184.944 289.969 194.144C295.435 203.21 300.835 212.21 306.169 221.144C299.635 221.144 293.102 221.144 286.569 221.144C280.035 221.144 273.502 221.144 266.969 221.144C262.835 213.677 258.635 206.077 254.369 198.344C250.235 190.61 246.035 183.01 241.769 175.544C239.502 175.544 237.169 175.544 234.769 175.544C232.502 175.544 230.235 175.544 227.969 175.544C227.969 183.01 227.969 190.61 227.969 198.344C227.969 206.077 227.969 213.677 227.969 221.144C222.235 221.144 216.435 221.144 210.569 221.144C204.702 221.144 198.835 221.144 192.969 221.144ZM241.169 116.744C239.035 116.744 236.835 116.744 234.569 116.744C232.435 116.744 230.235 116.744 227.969 116.744C227.969 121.677 227.969 126.61 227.969 131.544C227.969 136.477 227.969 141.41 227.969 146.344C230.502 146.344 233.035 146.344 235.569 146.344C238.102 146.344 240.635 146.344 243.169 146.344C247.169 146.344 250.435 144.944 252.969 142.144C255.502 139.21 256.769 135.677 256.769 131.544C256.769 127.277 255.369 123.744 252.569 120.944C249.902 118.144 246.102 116.744 241.169 116.744Z" fill="#F1F1F5"/>
</g>
<g filter="url(#filter3_d_1088_17571)">
<path d="M113.512 221.144C113.512 198.744 113.512 176.077 113.512 153.144C113.512 130.21 113.512 107.544 113.512 85.1436C121.512 85.1436 129.512 85.1436 137.512 85.1436C145.645 85.1436 153.712 85.1436 161.712 85.1436C171.845 85.1436 180.712 87.0769 188.312 90.9436C195.912 94.6769 201.778 100.01 205.912 106.944C210.178 113.744 212.312 121.744 212.312 130.944C212.312 138.81 210.712 145.81 207.512 151.944C204.312 158.077 199.978 163.077 194.512 166.944C199.845 175.877 205.178 184.944 210.512 194.144C215.978 203.21 221.378 212.21 226.712 221.144C220.178 221.144 213.645 221.144 207.112 221.144C200.578 221.144 194.045 221.144 187.512 221.144C183.378 213.677 179.178 206.077 174.912 198.344C170.778 190.61 166.578 183.01 162.312 175.544C160.045 175.544 157.712 175.544 155.312 175.544C153.045 175.544 150.778 175.544 148.512 175.544C148.512 183.01 148.512 190.61 148.512 198.344C148.512 206.077 148.512 213.677 148.512 221.144C142.778 221.144 136.978 221.144 131.112 221.144C125.245 221.144 119.378 221.144 113.512 221.144ZM161.712 116.744C159.578 116.744 157.378 116.744 155.112 116.744C152.978 116.744 150.778 116.744 148.512 116.744C148.512 121.677 148.512 126.61 148.512 131.544C148.512 136.477 148.512 141.41 148.512 146.344C151.045 146.344 153.578 146.344 156.112 146.344C158.645 146.344 161.178 146.344 163.712 146.344C167.712 146.344 170.978 144.944 173.512 142.144C176.045 139.21 177.312 135.677 177.312 131.544C177.312 127.277 175.912 123.744 173.112 120.944C170.445 118.144 166.645 116.744 161.712 116.744Z" fill="#F1F1F5"/>
</g>
<g filter="url(#filter4_d_1088_17571)">
<path d="M22.5391 221.144C22.5391 198.744 22.5391 176.077 22.5391 153.144C22.5391 130.21 22.5391 107.544 22.5391 85.1436C36.0057 85.1436 49.6057 85.1436 63.3391 85.1436C77.0724 85.1436 90.6724 85.1436 104.139 85.1436C104.139 90.2102 104.139 95.4102 104.139 100.744C104.139 106.077 104.139 111.277 104.139 116.344C96.4057 116.344 88.6057 116.344 80.7391 116.344C73.0057 116.344 65.2724 116.344 57.5391 116.344C57.5391 119.677 57.5391 123.01 57.5391 126.344C57.5391 129.544 57.5391 132.81 57.5391 136.144C64.6057 136.144 71.7391 136.144 78.9391 136.144C86.1391 136.144 93.2057 136.144 100.139 136.144C100.139 141.077 100.139 146.077 100.139 151.144C100.139 156.21 100.139 161.277 100.139 166.344C93.2057 166.344 86.1391 166.344 78.9391 166.344C71.7391 166.344 64.6057 166.344 57.5391 166.344C57.5391 170.21 57.5391 174.144 57.5391 178.144C57.5391 182.144 57.5391 186.077 57.5391 189.944C65.2724 189.944 73.0057 189.944 80.7391 189.944C88.6057 189.944 96.4057 189.944 104.139 189.944C104.139 195.01 104.139 200.21 104.139 205.544C104.139 210.877 104.139 216.077 104.139 221.144C90.6724 221.144 77.0724 221.144 63.3391 221.144C49.6057 221.144 36.0057 221.144 22.5391 221.144Z" fill="#FF0000"/>
</g>
<defs>
<filter id="filter0_d_1088_17571" x="330.66" y="64.1436" width="163.199" height="186" filterUnits="userSpaceOnUse" color-interpolation-filters="sRGB">
<feFlood flood-opacity="0" result="BackgroundImageFix"/>
<feColorMatrix in="SourceAlpha" type="matrix" values="0 0 0 0 0 0 0 0 0 0 0 0 0 0 0 0 0 0 127 0" result="hardAlpha"/>
<feOffset dx="3" dy="4"/>
<feGaussianBlur stdDeviation="12.5"/>
<feComposite in2="hardAlpha" operator="out"/>
<feColorMatrix type="matrix" values="0 0 0 0 0 0 0 0 0 0 0 0 0 0 0 0 0 0 0.72 0"/>
<feBlend mode="normal" in2="BackgroundImageFix" result="effect1_dropShadow_1088_17571"/>
<feBlend mode="normal" in="SourceGraphic" in2="effect1_dropShadow_1088_17571" result="shape"/>
</filter>
<filter id="filter1_d_1088_17571" x="231.148" y="86.9746" width="184.801" height="192.4" filterUnits="userSpaceOnUse" color-interpolation-filters="sRGB">
<feFlood flood-opacity="0" result="BackgroundImageFix"/>
<feColorMatrix in="SourceAlpha" type="matrix" values="0 0 0 0 0 0 0 0 0 0 0 0 0 0 0 0 0 0 127 0" result="hardAlpha"/>
<feOffset dx="3" dy="4"/>
<feGaussianBlur stdDeviation="12.5"/>
<feComposite in2="hardAlpha" operator="out"/>
<feColorMatrix type="matrix" values="0 0 0 0 0 0 0 0 0 0 0 0 0 0 0 0 0 0 0.72 0"/>
<feBlend mode="normal" in2="BackgroundImageFix" result="effect1_dropShadow_1088_17571"/>
<feBlend mode="normal" in="SourceGraphic" in2="effect1_dropShadow_1088_17571" result="shape"/>
</filter>
<filter id="filter2_d_1088_17571" x="170.969" y="64.1436" width="163.199" height="186" filterUnits="userSpaceOnUse" color-interpolation-filters="sRGB">
<feFlood flood-opacity="0" result="BackgroundImageFix"/>
<feColorMatrix in="SourceAlpha" type="matrix" values="0 0 0 0 0 0 0 0 0 0 0 0 0 0 0 0 0 0 127 0" result="hardAlpha"/>
<feOffset dx="3" dy="4"/>
<feGaussianBlur stdDeviation="12.5"/>
<feComposite in2="hardAlpha" operator="out"/>
<feColorMatrix type="matrix" values="0 0 0 0 0 0 0 0 0 0 0 0 0 0 0 0 0 0 0.72 0"/>
<feBlend mode="normal" in2="BackgroundImageFix" result="effect1_dropShadow_1088_17571"/>
<feBlend mode="normal" in="SourceGraphic" in2="effect1_dropShadow_1088_17571" result="shape"/>
</filter>
<filter id="filter3_d_1088_17571" x="91.5117" y="64.1436" width="163.199" height="186" filterUnits="userSpaceOnUse" color-interpolation-filters="sRGB">
<feFlood flood-opacity="0" result="BackgroundImageFix"/>
<feColorMatrix in="SourceAlpha" type="matrix" values="0 0 0 0 0 0 0 0 0 0 0 0 0 0 0 0 0 0 127 0" result="hardAlpha"/>
<feOffset dx="3" dy="4"/>
<feGaussianBlur stdDeviation="12.5"/>
<feComposite in2="hardAlpha" operator="out"/>
<feColorMatrix type="matrix" values="0 0 0 0 0 0 0 0 0 0 0 0 0 0 0 0 0 0 0.72 0"/>
<feBlend mode="normal" in2="BackgroundImageFix" result="effect1_dropShadow_1088_17571"/>
<feBlend mode="normal" in="SourceGraphic" in2="effect1_dropShadow_1088_17571" result="shape"/>
</filter>
<filter id="filter4_d_1088_17571" x="0.539062" y="64.1436" width="131.602" height="186" filterUnits="userSpaceOnUse" color-interpolation-filters="sRGB">
<feFlood flood-opacity="0" result="BackgroundImageFix"/>
<feColorMatrix in="SourceAlpha" type="matrix" values="0 0 0 0 0 0 0 0 0 0 0 0 0 0 0 0 0 0 127 0" result="hardAlpha"/>
<feOffset dx="3" dy="4"/>
<feGaussianBlur stdDeviation="12.5"/>
<feComposite in2="hardAlpha" operator="out"/>
<feColorMatrix type="matrix" values="0 0 0 0 0 0 0 0 0 0 0 0 0 0 0 0 0 0 0.72 0"/>
<feBlend mode="normal" in2="BackgroundImageFix" result="effect1_dropShadow_1088_17571"/>
<feBlend mode="normal" in="SourceGraphic" in2="effect1_dropShadow_1088_17571" result="shape"/>
</filter>
</defs>
</svg>
