<svg width="199" height="120" viewBox="0 0 199 120" fill="none" xmlns="http://www.w3.org/2000/svg">
<path d="M82.8271 1.5C85.0056 1.5 87.355 3.24261 89.248 6.91016C91.1013 10.5009 92.292 15.5657 92.292 21.2422C92.292 26.9189 91.1014 31.9844 89.248 35.5752C87.355 39.2427 85.0056 40.9854 82.8271 40.9854C80.6488 40.9851 78.3001 39.2425 76.4072 35.5752C74.5538 31.9844 73.3633 26.919 73.3633 21.2422C73.3633 15.5657 74.554 10.5009 76.4072 6.91016C78.3001 3.24287 80.6488 1.50025 82.8271 1.5Z" fill="white" stroke="#ADA6A6" stroke-width="3"/>
<path d="M110.175 1.5C112.353 1.5 114.703 3.24261 116.596 6.91016C118.449 10.5009 119.64 15.5657 119.64 21.2422C119.64 26.9189 118.449 31.9844 116.596 35.5752C114.703 39.2427 112.353 40.9854 110.175 40.9854C107.996 40.9851 105.648 39.2425 103.755 35.5752C101.901 31.9844 100.711 26.919 100.711 21.2422C100.711 15.5657 101.902 10.5009 103.755 6.91016C105.648 3.24287 107.996 1.50025 110.175 1.5Z" fill="white" stroke="#ADA6A6" stroke-width="3"/>
<ellipse cx="80.8908" cy="21.9422" rx="6.19162" ry="5.6024" fill="#573333" fill-opacity="0.63"/>
<ellipse cx="79.2139" cy="22.6422" rx="4.51473" ry="3.96837" fill="black"/>
<ellipse cx="78.1842" cy="19.7252" rx="0.902945" ry="0.817017" fill="white"/>
<ellipse cx="108.496" cy="21.9422" rx="6.19162" ry="5.6024" fill="#573333" fill-opacity="0.63"/>
<ellipse cx="106.819" cy="22.6422" rx="4.51473" ry="3.96837" fill="black"/>
<ellipse cx="105.79" cy="19.7252" rx="0.902945" ry="0.817017" fill="white"/>
<path d="M15.7004 67.5962V81.5482C15.7004 81.8469 15.8924 82.0389 16.2764 82.1242C17.7271 82.2949 18.8791 82.3802 19.7324 82.3802C22.8044 82.3802 25.1724 81.6762 26.8364 80.2682C28.5431 78.8176 29.3964 76.8122 29.3964 74.2522C29.3964 69.1749 26.1751 66.6362 19.7324 66.6362C18.6658 66.6362 17.4924 66.7429 16.2124 66.9562C15.8711 67.0416 15.7004 67.2549 15.7004 67.5962ZM8.66044 105.74C7.6791 105.74 6.82577 105.378 6.10044 104.652C5.3751 103.927 5.01244 103.074 5.01244 102.092V62.9882C5.01244 61.9642 5.35377 61.0469 6.03644 60.2362C6.7191 59.4256 7.57244 58.9776 8.59644 58.8922C12.2231 58.5509 15.7218 58.3802 19.0924 58.3802C32.7458 58.3802 39.5724 63.4576 39.5724 73.6122C39.5724 79.1162 37.9724 83.2976 34.7724 86.1562C31.6151 88.9722 26.9644 90.3802 20.8204 90.3802C19.1991 90.3802 17.6844 90.3162 16.2764 90.1882C15.8924 90.1882 15.7004 90.3589 15.7004 90.7002V102.092C15.7004 103.074 15.3378 103.927 14.6124 104.652C13.8871 105.378 13.0338 105.74 12.0524 105.74H8.66044ZM50.6829 105.74C49.7016 105.74 48.8483 105.378 48.1229 104.652C47.3976 103.927 47.0349 103.074 47.0349 102.092V76.1082C47.0349 75.1269 47.3976 74.2736 48.1229 73.5482C48.8483 72.8229 49.7016 72.4602 50.6829 72.4602H54.2669C55.2483 72.4602 56.1016 72.8229 56.8269 73.5482C57.5523 74.2736 57.9149 75.1269 57.9149 76.1082V102.092C57.9149 103.074 57.5523 103.927 56.8269 104.652C56.1016 105.378 55.2483 105.74 54.2669 105.74H50.6829ZM50.6829 66.0602C49.7016 66.0602 48.8483 65.6976 48.1229 64.9722C47.3976 64.2469 47.0349 63.3936 47.0349 62.4122V61.3882C47.0349 60.4069 47.3976 59.5536 48.1229 58.8282C48.8483 58.1029 49.7016 57.7402 50.6829 57.7402H54.2669C55.2483 57.7402 56.1016 58.1029 56.8269 58.8282C57.5523 59.5536 57.9149 60.4069 57.9149 61.3882V62.4122C57.9149 63.3936 57.5523 64.2469 56.8269 64.9722C56.1016 65.6976 55.2483 66.0602 54.2669 66.0602H50.6829ZM82.7829 106.38C77.2789 106.38 73.0549 104.93 70.1109 102.028C67.1669 99.1269 65.6949 94.8176 65.6949 89.1002C65.6949 83.5109 67.1029 79.2442 69.9189 76.3002C72.7776 73.3136 76.8523 71.8202 82.1429 71.8202C83.8923 71.8202 86.2176 72.0122 89.1189 72.3962C90.1856 72.5669 91.0389 73.0576 91.6789 73.8682C92.3616 74.6362 92.7029 75.5536 92.7029 76.6202V77.2602C92.7029 78.1562 92.3403 78.8816 91.6149 79.4362C90.8896 79.9909 90.0789 80.1829 89.1829 80.0122C87.4336 79.7136 85.6203 79.5642 83.7429 79.5642C81.3109 79.5642 79.4976 80.3322 78.3029 81.8682C77.1509 83.3616 76.5749 85.7722 76.5749 89.1002C76.5749 92.5136 77.1936 94.9669 78.4309 96.4602C79.7109 97.9109 81.6949 98.6362 84.3829 98.6362C86.3883 98.6362 88.1803 98.4656 89.7589 98.1242C90.6549 97.9109 91.4443 98.0816 92.1269 98.6362C92.8523 99.1909 93.2149 99.9162 93.2149 100.812V101.452C93.2149 102.519 92.8736 103.479 92.1909 104.332C91.5083 105.143 90.6549 105.634 89.6309 105.804C87.2843 106.188 85.0016 106.38 82.7829 106.38ZM105.276 105.74C104.295 105.74 103.442 105.378 102.716 104.652C102.034 103.927 101.692 103.074 101.692 102.092V61.3882C101.692 60.4069 102.034 59.5536 102.716 58.8282C103.442 58.1029 104.295 57.7402 105.276 57.7402H108.412C109.394 57.7402 110.226 58.1029 110.908 58.8282C111.634 59.5536 111.996 60.4069 111.996 61.3882V85.0042C111.996 85.0469 112.018 85.0682 112.06 85.0682L112.188 85.0042L120.188 75.2762C121.724 73.3989 123.687 72.4602 126.076 72.4602H130.684C131.367 72.4602 131.858 72.7802 132.156 73.4202C132.498 74.0602 132.434 74.6576 131.964 75.2122L121.02 88.0762C120.807 88.3322 120.807 88.6096 121.02 88.9082L132.092 102.924C132.519 103.522 132.562 104.14 132.22 104.78C131.922 105.42 131.41 105.74 130.684 105.74H126.076C123.687 105.74 121.746 104.78 120.252 102.86L112.188 92.3642C112.146 92.3216 112.103 92.3002 112.06 92.3002C112.018 92.3002 111.996 92.3216 111.996 92.3642V102.092C111.996 103.074 111.634 103.927 110.908 104.652C110.226 105.378 109.394 105.74 108.412 105.74H105.276ZM144.245 105.74C143.264 105.74 142.411 105.378 141.685 104.652C140.96 103.927 140.597 103.074 140.597 102.092V61.3882C140.597 60.4069 140.96 59.5536 141.685 58.8282C142.411 58.1029 143.264 57.7402 144.245 57.7402H147.829C148.811 57.7402 149.664 58.1029 150.389 58.8282C151.115 59.5536 151.477 60.4069 151.477 61.3882V102.092C151.477 103.074 151.115 103.927 150.389 104.652C149.664 105.378 148.811 105.74 147.829 105.74H144.245ZM170.393 105.228L159.577 75.8522C159.236 75.0416 159.321 74.2736 159.833 73.5482C160.345 72.8229 161.049 72.4602 161.945 72.4602H165.977C167.001 72.4602 167.94 72.8016 168.793 73.4842C169.647 74.1242 170.201 74.9562 170.457 75.9802L175.321 95.8842C175.321 95.9269 175.343 95.9482 175.385 95.9482C175.428 95.9482 175.449 95.9269 175.449 95.8842L181.273 75.9162C181.529 74.8922 182.084 74.0602 182.937 73.4202C183.833 72.7802 184.836 72.4602 185.945 72.4602H189.465C190.319 72.4602 191.001 72.8229 191.513 73.5482C192.025 74.2736 192.132 75.0416 191.833 75.8522L176.729 116.428C176.345 117.452 175.705 118.263 174.809 118.86C173.913 119.5 172.932 119.82 171.865 119.82H168.345C167.449 119.82 166.767 119.458 166.297 118.732C165.828 118.05 165.764 117.303 166.105 116.492L170.393 106.252C170.436 106.082 170.457 105.911 170.457 105.74C170.457 105.57 170.436 105.399 170.393 105.228Z" fill="white"/>
</svg>
